<?xml version="1.0" encoding="UTF-8" standalone="no"?>
<svg width="97px" height="97px" viewBox="0 0 97 97" version="1.1" xmlns="http://www.w3.org/2000/svg" xmlns:xlink="http://www.w3.org/1999/xlink" xmlns:sketch="http://www.bohemiancoding.com/sketch/ns">
    <title>number</title>
    <description>Created with Sketch (http://www.bohemiancoding.com/sketch)</description>
    <defs></defs>
    <g id="Page-1" stroke="none" stroke-width="1" fill="none" fill-rule="evenodd" sketch:type="MSPage">
        <g id="114---App-Icon-1" sketch:type="MSArtboardGroup" transform="translate(-9.000000, -9.000000)">
            <g id="number" sketch:type="MSLayerGroup" transform="translate(9.000000, 9.000000)">
                <path d="M48.5,97 C75.2858117,97 97,75.2858117 97,48.5 C97,21.7141883 75.2858117,0 48.5,0 C21.7141883,0 0,21.7141883 0,48.5 C0,75.2858117 21.7141883,97 48.5,97 Z" id="Oval" fill="#FFFFFF" sketch:type="MSShapeGroup"></path>
                <path d="M45.3721145,72 L12,72 L25.2483841,54.4510178 C26.7553169,52.4560969 28.02154,50.6742021 29.0470914,49.1052799 C30.0726429,47.5363577 30.8784212,46.1492851 31.4644506,44.9440204 C32.6155798,42.6789539 33.1911357,40.3515811 33.1911357,37.9618321 C33.1911357,36.6526652 32.9190547,35.6136595 32.3748846,34.8447837 C31.8307144,34.0759079 31.087724,33.6914758 30.145891,33.6914758 C28.0529289,33.6914758 27.0064635,35.6448066 27.0064635,39.5515267 C27.0064635,39.759331 27.0116959,40.0086924 27.0221607,40.2996183 C27.0326255,40.5905443 27.0483225,40.9334162 27.0692521,41.3282443 L14.3545706,41.3282443 L14.2917821,39.5826972 C14.2917821,34.7408579 15.7986922,30.771856 18.8125577,27.6755725 C21.8473528,24.5585086 25.7297394,23 30.4598338,23 C35.0224913,23 38.747908,24.4753881 41.6361958,27.4262087 C44.5454131,30.3146879 46,34.0862787 46,38.7410941 C46,42.4815709 45.0058579,46.1180909 43.0175439,49.6507634 C42.012922,51.4170996 40.7100726,53.2717248 39.1089566,55.2146947 C37.5078406,57.1576645 35.5666473,59.1993108 33.2853186,61.3396947 C35.252703,61.1942317 37.2357549,61.0903311 39.2345337,61.0279898 C41.2333125,60.9656485 43.2791524,60.9344784 45.3721145,60.9344784 L45.3721145,72 Z M51,57.9593496 L63.6323957,57.9593496 C63.6323957,60.8570084 64.6876713,62.3058161 66.7982541,62.3058161 C67.8535455,62.3058161 68.7122502,61.8941046 69.3743938,61.0706692 C70.0365374,60.2472337 70.3676043,59.1684453 70.3676043,57.8342714 C70.3676043,54.4362974 68.6088116,52.7373358 65.0911736,52.7373358 C64.8428698,52.7373358 64.5324946,52.7529705 64.1600388,52.7842402 C63.787583,52.8155098 63.3634036,52.8519906 62.8874879,52.8936836 L62.8874879,42.6060038 C63.2392517,42.6268502 63.5444539,42.6424848 63.8031038,42.6529081 C64.0617536,42.6633313 64.2738433,42.6685428 64.4393792,42.6685428 C67.9777093,42.6685428 69.7468477,41.0321198 69.7468477,37.7592245 C69.7468477,35.0908768 68.8260681,33.756723 66.9844811,33.756723 C65.5360419,33.756723 64.7083748,34.8302999 64.5014549,36.9774859 L64.4393792,37.6341463 L51.9311348,37.6341463 C52.2828986,33.1313096 53.8451203,29.5770403 56.6178468,26.971232 C59.3698812,24.3237308 62.980579,23 67.4500485,23 C71.7125981,23 75.250875,24.355 78.0649855,27.0650407 C80.9411718,29.7542348 82.3792435,33.0791964 82.3792435,37.040025 C82.3792435,41.4803224 80.4445716,44.8678224 76.5751697,47.2026266 C80.8584113,49.6833562 83,53.4148177 83,58.3971232 C83,62.7123418 81.4791617,66.2249187 78.4374394,68.9349593 C75.4371011,71.645 71.5367198,73 66.7361785,73 C62.0390971,73 58.25252,71.6762692 55.3763337,69.028768 C52.4587633,66.3812667 51,62.9312283 51,58.6785491 L51,57.9593496 Z" id="23" fill="#000000" sketch:type="MSShapeGroup"></path>
                <path d="M97,48.5 C97,21.7141883 75.2858117,0 48.5,0 C21.7141883,0 0,21.7141883 0,48.5 C0,75.2858117 21.7141883,97 48.5,97 C75.2858117,97 97,75.2858117 97,48.5 Z M3,48.5 C3,23.3710426 23.3710426,3 48.5,3 C73.6289574,3 94,23.3710426 94,48.5 C94,73.6289574 73.6289574,94 48.5,94 C23.3710426,94 3,73.6289574 3,48.5 Z" id="Oval" fill="#000000" sketch:type="MSShapeGroup"></path>
            </g>
        </g>
    </g>
</svg>